#!OML:ASF X:\für Bonn\!DataBase\2005_08_11_Bastian_Final\c3d\Bastian.ASF
:FULLY-SPECIFIED
:DEGREES
361
root -2.46887 1.48767 21.1609 -982.461 -3.11998 -176.412
lowerback 49.2182 4.9264 10.0052
upperback 28.5366 -6.49679 3.65731
thorax 12.8167 -10.4433 -0.752899
lowerneck -1.67836 4.82911 -1.34891
upperneck -0.324478 6.68234 6.85275
head -0.112756 3.44305 2.39237
rclavicle 1.80024e-014 -2.09718e-014
rhumerus -66.1956 35.627 -86.4539
rradius 81.1917
rwrist 10.8398
rhand -23.5701 -8.99519
rfingers 7.12502
rthumb 2.89251 -38.9553
lclavicle 1.80024e-014 -2.09718e-014
lhumerus -49.6378 -1.10195 72.538
lradius 59.8679
lwrist 27.6449
lhand -38.2918 -16.97
lfingers 7.12502
lthumb -11.3207 12.7045
rfemur -20.9783 6.94333 22.7587
rtibia 32.9664
rfoot 2.66534 -13.9821
rtoes -10.1279
lfemur -40.4966 8.06414 -18.8649
ltibia 69.428
lfoot 15.6575 6.98844
ltoes 8.31743
362
root -2.46738 1.48602 21.1661 -982.668 -3.15658 -176.428
lowerback 48.7373 4.91148 9.81754
upperback 28.5623 -6.47819 3.61195
thorax 12.8938 -10.3865 -0.747168
lowerneck -1.22339 4.72454 -1.54212
upperneck -0.0293611 6.51804 6.94077
head -0.100269 3.35381 2.44732
rclavicle 1.20886e-014 -1.37658e-014
rhumerus -64.7497 36.1355 -85.3069
rradius 80.1981
rwrist 11.3811
rhand -25.2073 -7.99136
rfingers 7.12502
rthumb 1.31135 -37.9671
lclavicle 1.20886e-014 -1.37658e-014
lhumerus -49.3212 -1.3813 72.3611
lradius 59.2812
lwrist 25.5091
lhand -37.9877 -17.9288
lfingers 7.12502
lthumb -11.0274 11.7615
rfemur -20.6843 6.81411 22.7131
rtibia 32.896
rfoot 2.36461 -14.3735
rtoes -9.45665
lfemur -39.7815 7.80924 -18.8399
ltibia 68.4158
lfoot 15.5717 6.68481
ltoes 7.56041
363
root -2.46571 1.4843 21.1694 -982.893 -3.1705 -176.445
lowerback 48.2686 4.90026 9.65657
upperback 28.5846 -6.44199 3.57518
thorax 12.9697 -10.3192 -0.747431
lowerneck -0.776924 4.60955 -1.72051
upperneck 0.266441 6.3423 7.04243
head -0.0852445 3.26055 2.50522
rclavicle -4.98204e-015 1.799e-014
rhumerus -63.2299 36.579 -84.1606
rradius 79.1086
rwrist 11.6565
rhand -26.6144 -7.04487
rfingers 7.12502
rthumb -0.047633 -37.0246
lclavicle -4.98204e-015 1.799e-014
lhumerus -48.9323 -1.87367 72.2412
lradius 58.6676
lwrist 23.726
lhand -37.7341 -18.8341
lfingers 7.12502
lthumb -10.7828 10.8691
rfemur -20.3748 6.75324 22.6862
rtibia 32.8443
rfoot 2.03208 -14.8122
rtoes -8.62184
lfemur -39.0061 7.55437 -18.7773
ltibia 67.3487
lfoot 15.4537 6.39509
ltoes 6.96718
364
root -2.46377 1.48289 21.1722 -983.085 -3.18484 -176.473
lowerback 47.7473 4.89509 9.44627
upperback 28.5946 -6.39992 3.5408
thorax 13.0378 -10.2467 -0.722367
lowerneck -0.262307 4.51178 -1.96575
upperneck 0.553014 6.19078 7.16435
head -0.0884835 3.17841 2.58023
rclavicle -1.64743e-014 -4.72114e-015
rhumerus -61.7035 37.0648 -83.0484
rradius 77.976
rwrist 11.5781
rhand -27.7789 -6.23733
rfingers 7.12502
rthumb -1.17235 -36.2139
lclavicle -1.64743e-014 -4.72114e-015
lhumerus -48.6047 -2.46195 72.1639
lradius 58.162
lwrist 22.2814
lhand -37.4599 -19.5162
lfingers 7.12502
lthumb -10.5183 10.2006
rfemur -20.1165 6.68091 22.6613
rtibia 32.8128
rfoot 1.72758 -15.2099
rtoes -7.82605
lfemur -38.2443 7.28646 -18.7235
ltibia 66.2235
lfoot 15.3061 6.12931
ltoes 6.13399
365
root -2.46258 1.48179 21.1748 -983.334 -3.19636 -176.5
lowerback 47.2426 4.88806 9.26337
upperback 28.616 -6.35683 3.50406
thorax 13.1231 -10.175 -0.715389
lowerneck 0.362507 4.4086 -2.13206
upperneck 0.755489 6.03595 7.21882
head -0.131635 3.0918 2.61528
rclavicle -1.30235e-014 1.16041e-014
rhumerus -60.0825 37.4116 -81.977
rradius 76.6972
rwrist 11.367
rhand -28.6388 -5.5141
rfingers 7.12502
rthumb -2.00283 -35.4844
lclavicle -1.30235e-014 1.16041e-014
lhumerus -48.2449 -3.14536 72.088
lradius 57.6279
lwrist 21.171
lhand -37.2324 -20.2993
lfingers 7.12502
lthumb -10.2988 9.42851
rfemur -19.7944 6.62363 22.636
rtibia 32.7944
rfoot 1.36256 -15.5824
rtoes -6.93826
lfemur -37.376 6.96412 -18.6519
ltibia 65.0429
lfoot 15.1061 5.95824
ltoes 5.71709
366
root -2.46043 1.47995 21.1762 -983.558 -3.18495 -176.516
lowerback 46.6818 4.87852 9.08151
upperback 28.6382 -6.30747 3.47292
thorax 13.2223 -10.0937 -0.707368
lowerneck 0.970576 4.31124 -2.31408
upperneck 1.01024 5.88791 7.29067
head -0.15675 3.01114 2.6612
rclavicle 2.25667e-014 -1.00635e-015
rhumerus -58.3785 37.6992 -80.9171
rradius 75.3665
rwrist 10.9566
rhand -29.1304 -4.78368
rfingers 7.12502
rthumb -2.47763 -34.749
lclavicle 2.25667e-014 -1.00635e-015
lhumerus -47.9004 -3.83995 72.0201
lradius 57.1765
lwrist 20.3595
lhand -37.0101 -20.9036
lfingers 7.12502
lthumb -10.0844 8.83471
rfemur -19.5117 6.59787 22.6428
rtibia 32.7931
rfoot 1.0114 -15.989
rtoes -6.23641
lfemur -36.5231 6.65173 -18.562
ltibia 63.8228
lfoot 14.9004 5.80803
ltoes 5.24455
367
root -2.45818 1.47863 21.1773 -983.794 -3.1735 -176.541
lowerback 45.0301 4.99995 8.71345
upperback 29.4642 -6.27387 3.50993
thorax 13.6051 -10.007 -0.736046
lowerneck 1.60906 4.21812 -2.50013
upperneck 1.24026 5.74815 7.36803
head -0.195381 2.93483 2.70945
rclavicle 3.01122e-014 3.71704e-014
rhumerus -56.5765 37.9519 -79.9002
rradius 73.9311
rwrist 10.325
rhand -29.4148 -4.05406
rfingers 7.12502
rthumb -2.75236 -34.016
lclavicle 3.01122e-014 3.71704e-014
lhumerus -47.5787 -4.57294 71.9648
lradius 56.7558
lwrist 19.8139
lhand -36.7764 -21.4287
lfingers 7.12502
lthumb -9.8589 8.32048
rfemur -19.2146 6.56162 22.6557
rtibia 32.7883
rfoot 0.674326 -16.3704
rtoes -5.69979
lfemur -35.626 6.30819 -18.4665
ltibia 62.5551
lfoot 14.6201 5.75285
ltoes 4.43783
368
root -2.45681 1.47595 21.1781 -984.041 -3.16319 -176.568
lowerback 44.5272 4.9749 8.54437
upperback 29.4444 -6.22164 3.46676
thorax 13.6825 -9.92251 -0.733865
lowerneck 2.25057 4.11912 -2.62183
upperneck 1.46911 5.60114 7.37315
head -0.229838 2.85562 2.72301
rclavicle -1.49756e-014 9.55409e-015
rhumerus -54.8351 38.1622 -78.9342
rradius 72.5316
rwrist 9.61609
rhand -29.5331 -3.40085
rfingers 7.12502
rthumb -2.86656 -33.3613
lclavicle -1.49756e-014 9.55409e-015
lhumerus -47.2897 -5.42421 71.9555
lradius 56.3884
lwrist 19.585
lhand -36.5784 -21.9095
lfingers 7.12502
lthumb -9.66791 7.84862
rfemur -18.9124 6.58472 22.6574
rtibia 32.7949
rfoot 0.317786 -16.772
rtoes -5.06764
lfemur -34.6981 5.9719 -18.3842
ltibia 61.249
lfoot 14.3131 5.82528
ltoes 3.95926
369
root -2.45544 1.4726 21.1794 -984.276 -3.12574 -176.59
lowerback 44.022 4.93719 8.40241
upperback 29.4148 -6.17035 3.42445
thorax 13.7515 -9.83189 -0.741699
lowerneck 2.81783 4.02059 -2.73943
upperneck 1.75965 5.45563 7.39501
head -0.232371 2.78138 2.74486
rclavicle -9.79325e-015 -6.65929e-015
rhumerus -53.0918 38.3187 -77.9987
rradius 71.1141
rwrist 8.86602
rhand -29.5854 -2.68482
rfingers 7.12502
rthumb -2.91703 -32.6446
lclavicle -9.79325e-015 -6.65929e-015
lhumerus -47.0138 -6.06838 71.8777
lradius 56.021
lwrist 19.3078
lhand -36.2842 -22.3062
lfingers 7.12502
lthumb -9.38402 7.46492
rfemur -18.6237 6.5828 22.6952
rtibia 32.7999
rfoot -0.0232282 -17.1156
rtoes -4.60784
lfemur -33.7615 5.61382 -18.2726
ltibia 59.9048
lfoot 13.9749 5.93686
ltoes 3.26798
370
root -2.45378 1.4695 21.1815 -984.522 -3.11182 -176.636
lowerback 43.5566 4.90958 8.22351
upperback 29.3737 -6.11779 3.38203
thorax 13.797 -9.7498 -0.725431
lowerneck 3.29924 3.92848 -2.90591
upperneck 2.08432 5.31732 7.43187
head -0.21142 2.71328 2.78361
rclavicle 1.88193e-014 -4.96962e-016
rhumerus -51.4207 38.5163 -77.1519
rradius 69.7273
rwrist 8.01445
rhand -29.6291 -1.99732
rfingers 7.12502
rthumb -2.95928 -31.9565
lclavicle 1.88193e-014 -4.96962e-016
lhumerus -46.7504 -6.465 71.7618
lradius 55.5808
lwrist 18.9525
lhand -35.85 -22.672
lfingers 7.12502
lthumb -8.96507 7.11749
rfemur -18.3278 6.57623 22.7074
rtibia 32.8127
rfoot -0.338406 -17.4182
rtoes -4.20032
lfemur -32.7887 5.26136 -18.1915
ltibia 58.5266
lfoot 13.6348 6.05151
ltoes 2.5456
